<?xml version="1.0"?>
<svg xmlns="http://www.w3.org/2000/svg" viewBox="-56 0 512 512.00267" width="512px" height="512px"><path d="m239.984375 187.023438c5.519531 0 10-4.480469 10-10 0-5.519532-4.480469-10-10-10s-10 4.480468-10 10c0 5.519531 4.480469 10 10 10zm0 0" fill="#e02689"/><path d="m169.988281 177.023438c0-5.519532-4.476562-10-9.996093-10-5.519532 0-10 4.480468-10 10 0 5.519531 4.480468 10 10 10 5.519531 0 9.996093-4.480469 9.996093-10zm0 0" fill="#e02689"/><path d="m149.992188 469.003906c5.519531 0 10-4.480468 10-10 0-5.519531-4.480469-9.996094-10-9.996094-5.519532 0-10 4.476563-10 9.996094 0 5.519532 4.480468 10 10 10zm0 0" fill="#e02689"/><path d="m98.476562 307.652344c-56.375 5.941406-98.476562 53.824218-98.476562 109.386718v84.964844c0 5.519532 4.476562 10 10 10h379.976562c5.519532 0 9.996094-4.480468 9.996094-10v-84.964844c0-55.570312-42.097656-103.445312-98.476562-109.386718l-35.769532-3.765625-11.078124-29.503907c28.117187-25.695312 45.332031-69.945312 45.332031-117.625 0-8.371093-.539063-16.699218-1.578125-24.878906.945312-.585937 1.574218-1.113281 2.285156-1.929687 26.425781-23.109375 40.777344-57.390625 34.179688-82.015625-11.613282-43.324219-84.347657-60.214844-165.585938-38.449219-36.957031 9.902344-70.628906 28.734375-94.804688 53.027344-24.507812 24.625-35.214843 51.257812-29.367187 73.0625 5.652344 21.097656 25.667969 36.511719 56.515625 43.632812 6.296875 39.65625 22.015625 73.375 43.976562 94.4375l-11.351562 30.230469zm101.511719-10.636719c13.054688 0 25.957031-3.554687 37.90625-10.363281l9.066407 24.144531-40.398438 36.726563c-3.792969 3.445312-9.542969 3.476562-13.367188.078124l-40.484374-36.003906 9.476562-25.230468c11.808594 7 24.667969 10.648437 37.800781 10.648437zm99.992188 194.988281h-199.984375v-68.996094h199.984375zm-279.980469-74.964844c0-38.414062 24.59375-72.316406 59.996094-84.84375v159.808594h-59.996094zm359.976562 0v74.964844h-59.996093v-159.808594c35.394531 12.519532 59.996093 46.425782 59.996093 84.84375zm-79.996093-89.425781v75.394531h-199.984375v-75.394531c.191406-.019531.382812-.054687.578125-.074219l35.734375-3.765624 43.597656 38.773437c11.589844 10.300781 28.832031 10.019531 40.105469-.226563l42.53125-38.664062 36.859375 3.882812c.195312.019532.386718.054688.578125.074219zm-187.152344-174.328125-3.480469-13.535156c-1.132812-4.417969.898438-9 5.0625-11.398438 20.4375-11.792968 43.886719-21.273437 69.699219-28.183593 27.851563-7.472657 57.476563-11.378907 86.613281-9.792969 5.148438.285156 9.269532 4.074219 9.796875 9.007812l1.289063 12.050782c-27.820313-3.375-60.378906-.574219-92.53125 8.046875-28.886719 7.746093-55.085938 19.351562-76.449219 33.804687zm-48.402344-22.886718c-3.894531-14.523438 5.160157-34.625 24.222657-53.777344 21.414062-21.515625 52.691406-38.941406 85.808593-47.816406 34.648438-9.28125 68.863281-11.300782 96.328125-5.679688 24.695313 5.054688 41.011719 15.984375 44.761719 29.984375 3.035156 11.324219-2.027344 30.382813-14.789063 47.476563l-.355468-3.328126c-1.574219-14.730468-13.59375-26.023437-28.585938-26.851562-30.804687-1.683594-62.480468 2.285156-92.882812 10.445312-27.5 7.359376-52.570313 17.511719-74.515625 30.171876-11.847657 6.828124-17.785157 20.6875-14.4375 33.703124l2.828125 11c-15.464844-5.867187-25.539063-14.71875-28.382813-25.328124zm56.355469 41.71875c19.90625-14.101563 45.824219-25.851563 73.675781-33.320313 29.253907-7.84375 58.636719-10.488281 83.667969-7.640625 1.226562 8.378906 1.855469 16.960938 1.855469 25.601562 0 44.808594-16.613281 85.695313-43.351563 106.707032-11.449218 8.992187-23.777344 13.554687-36.640625 13.554687-12.875 0-25.066406-4.691406-36.230469-13.941406-21.492187-17.792969-37.457031-51.671875-42.976562-90.960937zm0 0" fill="#e02689"/><path d="m173.261719 239.757812c8.402343 3.957032 17.394531 5.964844 26.726562 5.964844 9.132813 0 17.953125-1.925781 26.214844-5.726562 5.015625-2.308594 7.214844-8.246094 4.910156-13.261719-2.308593-5.019531-8.246093-7.214844-13.265625-4.910156-5.621094 2.585937-11.632812 3.898437-17.859375 3.898437-6.363281 0-12.492187-1.367187-18.210937-4.058594-5-2.355468-10.953125-.207031-13.304688 4.789063-2.351562 4.996094-.207031 10.953125 4.789063 13.304687zm0 0" fill="#e02689"/><path d="m189.988281 469.003906h59.996094c5.523437 0 10-4.476562 10-10 0-5.519531-4.476563-9.996094-10-9.996094h-59.996094c-5.523437 0-10 4.476563-10 9.996094 0 5.523438 4.476563 10 10 10zm0 0" fill="#e02689"/></svg>
