<?xml version="1.0"?>
<svg xmlns="http://www.w3.org/2000/svg" viewBox="-46 1 511 511.999" width="512px" height="512px"><path d="m209.800781 266c-5.519531 0-10 4.480469-10 10s4.480469 10 10 10 10-4.480469 10-10-4.480469-10-10-10zm0 0" fill="#e02689"/><path d="m413.371094 145.550781 5.378906-89.703125c.230469-3.78125-1.703125-7.363281-4.980469-9.257812-3.28125-1.894532-7.351562-1.773438-10.511719.316406l-74.96875 49.507812c-1.296874.859376-2.378906 2.007813-3.15625 3.355469-8.484374 14.742188-54.851562 95.28125-61.15625 106.230469h-8.265624c-3.320313-31.40625-8.160157-58.367188-13.699219-76.414062 19.996093-15.398438 25.148437-43.121094 12.769531-64.554688l-34.660156-60.03125c-1.789063-3.09375-5.089844-5-8.660156-5-3.574219 0-6.875 1.90625-8.660157 5l-34.671875 60.027344c-11.519531 19.945312-8.113281 46.214844 10.167969 62.375-5.863281 18.238281-10.960937 46.007812-14.40625 78.597656h-8.296875l-61.472656-106.152344c-1.738282-3.003906-4.054688-3.75-6.546875-5.582031-.0625-.042969-.128907-.085937-.191407-.125l-71.371093-47.136719c-3.164063-2.089844-7.230469-2.207031-10.511719-.316406-3.28125 1.894531-5.210938 5.480469-4.984375 9.261719l5.132813 85.417969c.320312 2.96875-.191407 5.617187 1.578124 8.671874l34.660157 59.863282c-1.78125 2.3125-2.472657 5.285156-1.875 8.148437 3.078125 14.683594 53.539062 255.527344 56.621093 270.238281 2.949219 13.738282 15.289063 23.710938 29.335938 23.710938h167.660156c14.050782 0 26.386719-9.972656 29.347656-23.761719 3.066407-14.636719 53.449219-255.105469 56.609376-270.1875.613281-2.921875-.117188-5.960937-1.976563-8.289062l34.445313-59.832031c.773437-1.339844 1.222656-2.839844 1.316406-4.378907zm-18.738282-21.617187-38.265624-22.09375 41.222656-27.222656zm-12.964843 38.695312-52.269531-30.179687 9.976562-17.328125 52.269531 30.179687zm-62.25-12.84375 52.269531 30.175782-14.988281 26.039062h-69.644531zm-69.617188 136.214844h95.113281l-30.589843 146h-209.054688l-30.585937-146h95.117187c5.519531 0 10-4.476562 10-10s-4.480469-10-10-10h-99.308593l-8.378907-40h295.375l-8.382812 40h-99.304688c-5.523437 0-10 4.476562-10 10s4.476563 10 10 10zm-64.351562-210.96875 26.007812-45.035156 26.003907 45.035156c11.546874 20-3.03125 44.96875-26 44.96875-22.882813 0-37.589844-24.921875-26.011719-44.96875zm10.644531 62.554688c4.929688 1.589843 10.109375 2.414062 15.367188 2.414062 4.160156 0 8.304687-.53125 12.320312-1.550781 4.636719 16.257812 8.839844 40.222656 11.816406 67.550781h-51.59375c3.023438-27.753906 7.320313-51.992188 12.089844-68.414062zm-63.609375 68.414062h-69.75l-30.734375-53.085938c10.394531-.234374 20.625-3.074218 29.925781-8.445312 9.324219-5.378906 16.917969-12.839844 22.328125-21.75zm-62.4375-99.34375c-3.605469 8.59375-9.871094 15.734375-18.117187 20.492188-8.238282 4.753906-17.542969 6.605468-26.777344 5.429687l-3.472656-57.859375zm223.582031 385.34375h-167.660156c-4.683594 0-8.796875-3.324219-9.769531-7.859375l-6.738281-32.140625h200.675781l-6.726563 32.089844c-.980468 4.585937-5.09375 7.910156-9.78125 7.910156zm0 0" fill="#e02689"/></svg>
