<?xml version="1.0"?>
<svg xmlns="http://www.w3.org/2000/svg" viewBox="0 0 512 512" width="512px" height="512px"><path d="m136 266c5.519531 0 10-4.480469 10-10s-4.480469-10-10-10-10 4.480469-10 10 4.480469 10 10 10zm0 0" fill="#e02689"/><path d="m276 326c16.542969 0 30-13.457031 30-30s-13.457031-30-30-30-30 13.457031-30 30 13.457031 30 30 30zm0-40c5.515625 0 10 4.484375 10 10s-4.484375 10-10 10-10-4.484375-10-10 4.484375-10 10-10zm0 0" fill="#e02689"/><path d="m336 266h40c5.523438 0 10-4.476562 10-10s-4.476562-10-10-10h-40c-5.523438 0-10 4.476562-10 10s4.476562 10 10 10zm0 0" fill="#e02689"/><path d="m176 266h40c5.523438 0 10-4.476562 10-10s-4.476562-10-10-10h-40c-5.523438 0-10 4.476562-10 10s4.476562 10 10 10zm0 0" fill="#e02689"/><path d="m482 120h-130.648438l-55.492187-83.242188c-1.660156-20.542968-18.894531-36.757812-39.859375-36.757812s-38.199219 16.214844-39.855469 36.757812l-55.496093 83.242188h-130.648438c-16.574219 0-30 13.425781-30 30v332c0 13.523438 8.875 21.328125 8.808594 21.230469 5.664062 5.65625 13.191406 8.769531 21.191406 8.769531h452c16.574219 0 30-13.425781 30-30v-332c0-16.332031-13.210938-30-30-30zm-462 34.140625 46 46.003906v231.714844l-46 46zm457.855469-14.140625-46 46h-351.710938l-46-46zm-157.710938 286-30-30 55.855469-55.859375 80 80v5.859375zm105.855469-220v185.855469l-72.929688-72.925781c-3.90625-3.90625-10.234374-3.90625-14.140624 0l-62.929688 62.925781-82.929688-82.925781c-3.90625-3.90625-10.234374-3.90625-14.140624 0l-92.929688 92.925781v-185.855469zm-340 220v-5.855469l100-100 105.855469 105.855469zm-5.855469 20h351.714844l46 46h-443.714844zm365.855469-14.144531c0-10.976563 0-216.015625 0-231.714844l46-46v323.714844zm-190-411.855469c11.027344 0 20 8.972656 20 20s-8.972656 20-20 20-20-8.972656-20-20 8.972656-20 20-20zm-33.015625 42.550781c7.210937 10.527344 19.320313 17.449219 33.015625 17.449219s25.804688-6.921875 33.015625-17.449219l38.300781 57.449219h-142.628906zm0 0" fill="#e02689"/></svg>
